<svg width="1200" height="330" viewBox="0 0 1200 330" fill="none" xmlns="http://www.w3.org/2000/svg">
  <rect width="1200" height="330" rx="18" fill="#0B0F14"/>
  <g opacity="0.32" stroke="#303844">
    <path d="M0 55H1200M0 110H1200M0 165H1200M0 220H1200M0 275H1200"/>
    <path d="M80 0V330M160 0V330M240 0V330M320 0V330M400 0V330M480 0V330M560 0V330M640 0V330M720 0V330M800 0V330M880 0V330M960 0V330M1040 0V330M1120 0V330"/>
  </g>
  <g opacity="0.9">
    <path d="M70 252C150 240 190 265 255 230C320 195 350 216 415 178C480 140 525 190 590 146C655 102 705 126 770 94C835 62 880 86 945 55C1010 25 1060 53 1130 25" stroke="#58A6FF" stroke-width="3"/>
    <path d="M70 252C150 240 190 265 255 230C320 195 350 216 415 178C480 140 525 190 590 146C655 102 705 126 770 94C835 62 880 86 945 55C1010 25 1060 53 1130 25" stroke="#58A6FF" stroke-width="12" opacity="0.08"/>
  </g>
  <circle cx="1070" cy="235" r="54" stroke="#58A6FF" opacity="0.22"/>
  <circle cx="1070" cy="235" r="32" stroke="#58A6FF" opacity="0.38"/>
  <circle cx="1070" cy="235" r="7" fill="#58A6FF"/>
  <text x="70" y="100" fill="#8B949E" font-family="Arial, Helvetica, sans-serif" font-size="17" letter-spacing="4">MOEIN NOROUZI / @MOEINNRZ</text>
  <text x="70" y="165" fill="#F0F6FC" font-family="Arial, Helvetica, sans-serif" font-size="48" font-weight="700">AI &amp; MACHINE LEARNING</text>
  <text x="70" y="202" fill="#58A6FF" font-family="Arial, Helvetica, sans-serif" font-size="21" letter-spacing="2">PYTHON · DEEP LEARNING · NLP · COMPUTER VISION</text>
  <text x="70" y="286" fill="#8B949E" font-family="Arial, Helvetica, sans-serif" font-size="14">BUILDING PRACTICAL SOFTWARE • LEARNING BY BUILDING • IMPROVING EVERY ITERATION</text>
</svg>
